<?xml version="1.0" encoding="UTF-8" standalone="no"?>
<!-- Created with Inkscape (http://www.inkscape.org/) -->

<svg
   width="142.34584mm"
   height="119.32708mm"
   viewBox="0 0 142.34584 119.32708"
   version="1.1"
   id="svg5"
   xml:space="preserve"
   inkscape:version="1.2 (dc2aedaf03, 2022-05-15)"
   sodipodi:docname="logo.svg"
   xmlns:inkscape="http://www.inkscape.org/namespaces/inkscape"
   xmlns:sodipodi="http://sodipodi.sourceforge.net/DTD/sodipodi-0.dtd"
   xmlns="http://www.w3.org/2000/svg"
   xmlns:svg="http://www.w3.org/2000/svg"><sodipodi:namedview
     id="namedview7"
     pagecolor="#ffffff"
     bordercolor="#000000"
     borderopacity="0.25"
     inkscape:showpageshadow="2"
     inkscape:pageopacity="0.0"
     inkscape:pagecheckerboard="0"
     inkscape:deskcolor="#d1d1d1"
     inkscape:document-units="mm"
     showgrid="false"
     inkscape:zoom="1.4324916"
     inkscape:cx="259.33835"
     inkscape:cy="226.52838"
     inkscape:window-width="1920"
     inkscape:window-height="991"
     inkscape:window-x="-9"
     inkscape:window-y="-9"
     inkscape:window-maximized="1"
     inkscape:current-layer="layer1" /><defs
     id="defs2" /><g
     inkscape:label="Layer 1"
     inkscape:groupmode="layer"
     id="layer1"
     transform="translate(-28.196476,-65.933472)"><path
       style="fill:#000000;stroke-width:0.264583"
       d="m 99.582228,178.9609 c -0.13217,-0.12585 -1.07374,-0.67437 -2.09239,-1.21893 -1.01864,-0.54456 -2.73756,-1.58638 -3.81982,-2.31515 -1.08226,-0.72877 -2.98257,-2.10837 -4.2229,-3.06578 -1.24034,-0.95741 -3.27188,-2.71982 -4.51455,-3.91647 -2.25939,-2.17571 -2.25939,-2.17571 -4.77294,-2.18012 -1.38244,-0.002 -4.41854,-0.0594 -6.74687,-0.12653 -2.32833,-0.0672 -5.64392,-0.20297 -7.36797,-0.30177 -3.13464,-0.17965 -3.13464,-0.17965 -2.81667,0.41448 0.17488,0.32678 0.95827,1.48653 1.74086,2.57723 0.78259,1.0907 1.35845,2.08735 1.2797,2.21478 -0.0792,0.12811 -6.73007,0.22987 -14.8781,0.22763 -8.1042,-0.002 -14.87174,-0.0915 -15.03898,-0.19844 -0.16724,-0.10691 -1.73525,-2.3346 -3.48446,-4.95042 -1.74921,-2.61582 -3.1234,-4.84824 -3.05375,-4.96093 0.0696,-0.1127 2.41157,-0.22939 5.20425,-0.25932 2.79269,-0.0299 4.03582,-0.0941 2.76251,-0.14259 -2.3151,-0.0882 -2.3151,-0.0882 -2.31853,-0.93778 -0.002,-0.46727 -0.2474,-2.33787 -0.54558,-4.15688 -0.29818,-1.81901 -0.6048,-3.92639 -0.68137,-4.68305 -0.1373,-1.35666 -0.12697,-1.38096 0.74401,-1.75067 0.48579,-0.2062 1.26826,-0.74715 1.73883,-1.20211 0.47057,-0.45496 1.05074,-1.27451 1.28926,-1.82121 0.29164,-0.66848 0.43782,-1.77384 0.44634,-3.37526 0.0102,-1.91757 -0.099,-2.61308 -0.56069,-3.57187 -0.31536,-0.65484 -0.91796,-1.73991 -1.33912,-2.41126 -0.42116,-0.67136 -0.85672,-1.62386 -0.9679,-2.11667 -0.11118,-0.49282 -0.17682,-1.42993 -0.14585,-2.08247 0.0408,-0.85986 0.32058,-1.58459 1.01642,-2.63292 0.52807,-0.79557 1.09563,-1.84064 1.26124,-2.32238 0.16562,-0.48174 0.24791,-1.23845 0.18287,-1.68158 -0.0685,-0.46648 -0.38486,-0.98037 -0.75151,-1.2206 -0.34829,-0.22822 -0.94712,-0.41493 -1.33074,-0.41493 -0.42429,0 -0.88378,0.24612 -1.17312,0.62838 -0.31221,0.41248 -0.53891,1.3495 -0.65977,2.7271 -0.15493,1.76598 -0.28904,2.19594 -0.84585,2.71198 -0.40151,0.37211 -0.98468,0.61098 -1.48299,0.60746 -0.45169,-0.003 -1.35704,-0.25429 -2.01188,-0.55799 -1.19063,-0.55217 -1.19063,-0.55217 -0.0845,-1.0339 0.60839,-0.26495 1.28013,-0.758 1.49275,-1.09566 0.21261,-0.33766 0.51405,-1.36659 0.66987,-2.2865 0.15581,-0.9199 0.53426,-2.07863 0.841,-2.57495 0.30674,-0.49631 0.91602,-1.15753 1.35395,-1.46937 0.57599,-0.41013 1.18881,-0.56697 2.21538,-0.56697 0.92334,0 1.72446,0.17832 2.29306,0.5104 0.48066,0.28072 1.14222,0.90852 1.47014,1.39512 0.48544,0.72035 0.59621,1.24929 0.59621,2.84706 0,1.41466 -0.16008,2.34525 -0.57356,3.33431 -0.31546,0.75458 -0.75967,1.59031 -0.98713,1.85717 -0.23413,0.27469 -0.40195,0.92815 -0.38679,1.5061 0.019,0.72365 0.27433,1.33347 0.87706,2.09448 0.46767,0.59047 0.95902,1.07359 1.09189,1.07359 0.13287,0 0.71139,-0.42444 1.2856,-0.9432 0.5742,-0.51876 1.33517,-1.44149 1.69104,-2.05052 0.35587,-0.60903 0.88529,-1.88123 1.1765,-2.82711 0.29121,-0.94589 0.53517,-2.4937 0.54215,-3.43959 0.0127,-1.71979 0.0127,-1.71979 -0.59154,-0.0866 -0.33233,0.89827 -0.93756,2.02936 -1.34497,2.51354 -0.40741,0.48417 -0.87221,0.88032 -1.03289,0.88032 -0.16068,0 -0.2511,-0.1786 -0.20092,-0.39688 0.0502,-0.21828 0.13902,-0.635 0.19743,-0.92604 0.0584,-0.29104 0.17466,-0.89073 0.25835,-1.33265 0.0837,-0.44191 -0.0329,-1.6017 -0.2592,-2.5773 -0.22626,-0.97559 -0.711,-2.48567 -1.0772,-3.35573 -0.56812,-1.34979 -0.66582,-1.98804 -0.66582,-4.34956 0,-2.54661 0.0665,-2.91135 0.83294,-4.5672 0.55179,-1.19214 1.34342,-2.30218 2.3453,-3.28863 1.00362,-0.98816 1.94083,-1.63506 2.78607,-1.92306 0.70054,-0.2387 1.75851,-0.43271 2.35105,-0.43113 0.59254,0.002 1.65869,0.17923 2.36921,0.39478 0.71053,0.21555 1.81164,0.72028 2.44692,1.12162 0.63529,0.40133 1.15528,0.80536 1.15554,0.89784 2.6e-4,0.0925 -0.74367,0.16264 -1.65318,0.1559 -1.01603,-0.008 -2.04724,0.16314 -2.67443,0.44266 -0.56143,0.2502 -0.97026,0.50544 -0.90852,0.56718 0.0618,0.0618 0.52032,-0.005 1.01904,-0.14779 0.49873,-0.14303 1.47273,-0.26006 2.16445,-0.26006 1.10482,0 1.59325,0.21774 4.01887,1.79154 2.76121,1.79154 2.76121,1.79154 1.98501,3.40878 -0.52099,1.08551 -0.97187,1.66968 -1.3713,1.77673 -0.3273,0.0877 -0.89602,0.16111 -1.26383,0.16309 -0.3678,0.002 -0.91511,-0.16896 -1.21623,-0.37987 -0.30113,-0.21092 -0.79646,-0.36473 -1.10075,-0.34181 -0.30428,0.0229 -0.61238,0.2678 -0.68465,0.54417 -0.0723,0.27637 -0.0231,0.78738 0.10929,1.13556 0.13238,0.34818 0.39841,0.63306 0.59119,0.63306 0.19278,0 0.49002,-0.13951 0.66053,-0.31002 0.23698,-0.23698 0.58608,-0.16805 1.48164,0.29255 1.13169,0.58205 1.1629,0.63093 0.91623,1.43451 -0.14045,0.45756 -0.28199,0.96478 -0.31454,1.12715 -0.0325,0.16238 -0.26007,0.5791 -0.50562,0.92605 -0.44645,0.63081 -0.44645,0.63081 -1.04803,-0.0828 -0.33087,-0.39249 -1.30098,-1.02261 -2.15582,-1.40027 -0.85483,-0.37766 -1.58515,-0.65185 -1.62292,-0.6093 -0.0378,0.0425 0.44646,0.85126 1.07605,1.79714 0.6296,0.94589 1.67929,2.30781 2.33263,3.0265 1.11506,1.22658 1.19901,1.42527 1.36909,3.2403 0.0997,1.06348 0.12617,2.22143 0.0589,2.57323 -0.12105,0.63328 -0.0957,0.64143 2.54869,0.819 1.46902,0.0986 3.08767,0.13861 3.59699,0.0888 0.76083,-0.0744 0.94004,-0.20855 1.0045,-0.752 0.0431,-0.36381 0.19896,-0.97089 0.34626,-1.34908 0.1473,-0.37818 0.72352,-0.94373 1.28049,-1.25677 0.55697,-0.31303 1.13907,-0.56915 1.29355,-0.56915 0.15449,0 0.32461,0.62507 0.37806,1.38906 0.0534,0.76398 0.1192,-3.70855 0.14612,-9.93896 0.0489,-11.32802 0.0489,-11.32802 -0.74481,-11.99591 -0.70187,-0.59058 -0.79375,-0.83363 -0.79375,-2.09959 0,-1.43169 0,-1.43169 4.23333,-1.43169 4.23334,0 4.23334,0 4.23334,-0.89142 0,-0.89143 0,-0.89143 -2.31511,-1.16149 -1.2733,-0.14854 -2.79135,-0.29355 -3.37343,-0.32226 -0.58209,-0.0287 -1.35599,-0.0812 -1.7198,-0.11653 -0.64041,-0.0623 -0.66392,-0.13443 -0.73897,-2.267442 -0.0426,-1.211715 0.0186,-2.299265 0.13614,-2.416775 0.11751,-0.11751 0.92629,-0.0438 1.79731,0.16376 0.871,0.20758 2.69462,0.57075 4.05248,0.80703 1.35785,0.23629 2.50651,0.38965 2.55256,0.34081 0.046,-0.0489 0.26599,-0.70674 0.48875,-1.46199 0.40503,-1.37319 0.40503,-1.37319 -1.36193,-2.03388 -0.97183,-0.36338 -2.30274,-0.80923 -2.95759,-0.99079 -0.65484,-0.18156 -1.42547,-0.4867 -1.71251,-0.67811 -0.28704,-0.1914 -0.7968,-0.348 -1.13279,-0.348 -0.33599,0 -0.67517,-0.16751 -0.75373,-0.37224 -0.0786,-0.20473 0.0468,-0.94887 0.27851,-1.65365 0.23175,-0.70477 0.73068,-1.90648 1.10873,-2.67046 0.37806,-0.76399 0.84476,-1.38906 1.0371,-1.38906 0.19234,0 0.41628,0.10769 0.49763,0.23933 0.0814,0.13163 0.83252,0.63661 1.66926,1.12218 0.83674,0.48558 1.69994,0.97257 1.91822,1.08221 0.21828,0.10964 1.15297,0.67622 2.07709,1.25906 0.92411,0.58285 1.78732,1.05971 1.91823,1.05971 0.13091,0 0.23928,-0.0893 0.24084,-0.19843 0.002,-0.10914 0.52332,-0.76279 1.15949,-1.45255 1.15667,-1.25411 1.15667,-1.25411 0.19562,-2.14883 -0.52859,-0.49209 -2.21078,-2.16186 -3.73821,-3.710591 -2.77715,-2.815875 -2.77715,-2.815875 -0.29899,-5.185604 1.36299,-1.303351 2.71098,-2.443621 2.99553,-2.533934 0.28455,-0.09031 0.55286,-0.123568 0.59625,-0.0739 0.0434,0.04967 0.95714,1.402195 2.03058,3.005616 1.07343,1.603422 2.10784,3.210766 2.29868,3.571875 0.19084,0.36111 0.6222,0.996737 0.95857,1.412506 0.6116,0.755942 0.6116,0.755942 2.73271,-0.264583 2.1211,-1.020527 2.1211,-1.020527 0.006,-5.25386 -1.16346,-2.328333 -2.2832,-4.62071 -2.48832,-5.094169 -0.37294,-0.860837 -0.37294,-0.860837 1.02006,-1.50011 0.76616,-0.3516 2.04786,-0.894533 2.84822,-1.206518 0.80037,-0.311985 1.99753,-0.633035 2.66037,-0.713445 1.20516,-0.146199 1.20516,-0.146199 1.52471,1.141313 0.17576,0.708132 0.37557,1.525638 0.44403,1.816679 0.0685,0.291042 0.18801,0.826823 0.26568,1.190625 0.0777,0.363802 0.18803,0.899584 0.24524,1.190625 0.0572,0.291042 0.28725,1.303073 0.51118,2.248959 0.22392,0.945885 0.47832,2.167149 0.56532,2.713919 0.14573,0.915885 0.21447,0.982257 0.87343,0.843294 0.39339,-0.08296 0.99536,-0.208229 1.33771,-0.278379 0.61477,-0.125968 0.62035,-0.157651 0.45097,-2.563086 -0.0943,-1.339547 -0.22524,-2.971321 -0.29094,-3.626165 -0.0657,-0.654844 -0.17934,-2.281794 -0.25255,-3.615445 -0.1331,-2.42482 -0.1331,-2.42482 1.89107,-2.6145 1.1133,-0.104325 3.029642,-0.126952 4.258552,-0.05028 1.22891,0.07667 2.33765,0.242661 2.46386,0.368872 0.12958,0.129576 0.0725,1.20707 -0.13123,2.475102 -0.1984,1.235095 -0.43374,3.021257 -0.523,3.969249 -0.0893,0.947991 -0.27898,2.436273 -0.42161,3.307291 -0.14263,0.871019 -0.26001,1.727104 -0.26085,1.902411 -8e-4,0.175307 0.44495,0.394063 0.99065,0.486124 0.5457,0.09206 1.18878,0.220809 1.42907,0.286106 0.35152,0.09552 0.4717,-0.154554 0.61508,-1.279874 0.098,-0.769228 0.40889,-2.291565 0.69084,-3.382971 0.28196,-1.091406 0.62032,-2.520156 0.75193,-3.175 0.1316,-0.654843 0.30041,-1.450788 0.37513,-1.768766 0.0747,-0.317978 0.26743,-0.823994 0.42824,-1.12448 0.16475,-0.30783 0.55684,-0.546337 0.89814,-0.546337 0.33316,0 1.72796,0.400614 3.09955,0.890254 1.37158,0.48964 2.82121,1.044532 3.2214,1.233095 0.40018,0.188562 0.7276,0.538638 0.7276,0.777947 0,0.239309 -1.06846,2.571682 -2.37436,5.183052 -2.37435,4.747943 -2.37435,4.747943 -0.7276,5.501508 0.90571,0.41446 1.84675,0.931355 2.09119,1.148665 0.40311,0.35837 0.51381,0.29103 1.19062,-0.724286 0.41041,-0.615664 0.9134,-1.430219 1.11777,-1.810124 0.20436,-0.379905 0.44371,-0.750268 0.53187,-0.823028 0.0882,-0.07276 0.91895,-1.293151 1.8462,-2.711979 0.92724,-1.418828 1.84152,-2.579687 2.03172,-2.579687 0.1902,0 0.89298,0.473564 1.56174,1.052365 0.66875,0.578802 1.80709,1.668949 2.52963,2.42255 0.72255,0.753601 1.31372,1.476039 1.31372,1.605417 0,0.129379 -1.6195,1.815884 -3.59889,3.747792 -3.59889,3.51255 -3.59889,3.51255 -2.83798,4.28753 0.4185,0.42623 1.03261,1.12689 1.36468,1.55701 0.553,0.71627 0.65259,0.75115 1.18434,0.4148 0.31931,-0.20197 1.77118,-1.07546 3.22639,-1.94107 1.45521,-0.86562 2.96844,-1.79642 3.36273,-2.06846 0.39429,-0.27203 0.83728,-0.4946 0.98443,-0.4946 0.14715,0 0.56425,0.64867 0.92689,1.44149 0.36265,0.79282 0.85997,2.05484 1.10517,2.8045 0.37827,1.15647 0.38979,1.39893 0.076,1.60004 -0.2034,0.13037 -2.09622,0.79151 -4.20627,1.46919 -2.11005,0.67768 -3.87809,1.26554 -3.92897,1.30636 -0.0509,0.0408 0.0475,0.52867 0.21853,1.08412 0.17108,0.55546 0.38044,1.18851 0.46525,1.40679 0.0848,0.21829 0.14118,0.46853 0.12527,0.5561 -0.0159,0.0876 0.70932,0.004 1.61164,-0.18578 0.90231,-0.18974 2.76753,-0.58303 4.14493,-0.87396 1.37739,-0.29093 2.55793,-0.47539 2.62342,-0.4099 0.0655,0.0655 0.17496,1.08456 0.24327,2.264605 0.0952,1.644052 0.0386,2.199762 -0.24217,2.377562 -0.20151,0.12762 -1.01316,0.23386 -1.80367,0.23608 -0.79051,0.002 -2.48715,0.13869 -3.77031,0.30325 -2.33302,0.2992 -2.33302,0.2992 -2.33302,1.19063 0,0.89142 0,0.89142 4.10104,0.89142 4.10104,0 4.10104,0 4.13033,0.72761 0.0161,0.40018 0.005,1.01699 -0.0252,1.37067 -0.03,0.35369 -0.23543,0.91924 -0.45659,1.25678 -0.22116,0.33753 -0.55167,0.61369 -0.73446,0.61369 -0.25175,0 -0.32813,0.89835 -0.31495,3.70417 0.0174,3.70417 0.0174,3.70417 1.30542,3.70417 1.28801,0 1.28801,0 2.09348,1.78593 0.443,0.98227 1.1932,2.26219 1.6671,2.84428 0.4739,0.58208 1.25143,1.47505 1.72786,1.98437 0.47642,0.50932 1.16105,1.31224 1.52141,1.78425 0.59023,0.77311 0.75386,0.84243 1.65019,0.6991 0.60323,-0.0965 1.0654,-0.0452 1.17383,0.13028 0.0984,0.15916 -0.11854,0.79706 -0.48201,1.41756 -0.43146,0.73656 -0.7243,1.74813 -0.84361,2.91412 -0.18275,1.78594 -0.18275,1.78594 -1.93215,1.78274 -1.74941,-0.003 -1.74941,-0.003 -3.60149,-3.59637 -1.59599,-3.09632 -1.98782,-3.66295 -2.83373,-4.09784 -0.53991,-0.27757 -1.08884,-0.50467 -1.21985,-0.50467 -0.131,0 -0.23431,1.24451 -0.22956,2.76558 0.005,1.52107 0.0898,2.71543 0.18895,2.65414 0.0992,-0.0613 0.72029,0.23099 1.38026,0.64953 0.97703,0.61962 1.28308,1.01128 1.64747,2.10836 0.44752,1.34739 0.44752,1.34739 1.84155,1.34739 0.76671,0 2.29445,-0.0761 3.39498,-0.16915 2.00094,-0.16914 2.00094,-0.16914 2.00094,-1.97581 0,-0.99366 0.14427,-2.257 0.32059,-2.80742 0.17633,-0.55041 0.6394,-1.29983 1.02905,-1.66537 0.38965,-0.36554 1.23727,-1.4371 1.8836,-2.38125 0.64632,-0.94414 1.30354,-1.95705 1.46048,-2.2509 0.25288,-0.4735 0.0876,-0.43953 -1.45324,0.29864 -0.95622,0.4581 -1.96539,1.08547 -2.2426,1.39417 -0.27722,0.30869 -0.5902,0.56125 -0.69551,0.56125 -0.10531,0 -0.31382,-0.32742 -0.46336,-0.7276 -0.14953,-0.40018 -0.3591,-0.96573 -0.46571,-1.25677 -0.1066,-0.29104 -0.21741,-0.74413 -0.24625,-1.00685 -0.0352,-0.3205 0.29241,-0.64429 0.9955,-0.98399 0.75266,-0.36364 1.1824,-0.43433 1.5252,-0.25087 0.2625,0.14049 0.65996,0.18533 0.88325,0.0996 0.22328,-0.0857 0.47273,-0.36614 0.55433,-0.62323 0.0816,-0.2571 0.073,-0.66385 -0.0191,-0.90389 -0.0921,-0.24003 -0.44553,-0.50622 -0.78537,-0.59151 -0.36617,-0.0919 -0.86331,0.0168 -1.22031,0.26686 -0.33133,0.23208 -0.9702,0.42195 -1.4197,0.42195 -0.46958,0 -1.07604,-0.24107 -1.42549,-0.56663 -0.33452,-0.31165 -0.77369,-0.96267 -0.97594,-1.44671 -0.20224,-0.48405 -0.36013,-1.09226 -0.35087,-1.3516 0.0106,-0.29534 0.96314,-1.08938 2.54948,-2.12516 2.30008,-1.50181 2.66136,-1.65365 3.93468,-1.65365 0.77112,0 1.72397,0.1224 2.11743,0.27199 0.39345,0.14959 0.76946,0.2179 0.83556,0.1518 0.0661,-0.0661 -0.27784,-0.33275 -0.7643,-0.59256 -0.58705,-0.31352 -1.44275,-0.46928 -2.54458,-0.46319 -1.06634,0.006 -1.62728,-0.0924 -1.56836,-0.27474 0.0505,-0.15616 0.85703,-0.67451 1.79239,-1.1519 0.93535,-0.47739 2.31258,-0.93891 3.06051,-1.02559 0.75614,-0.0876 1.95812,-0.0141 2.70743,0.16568 0.74117,0.1778 1.77185,0.66045 2.29041,1.07255 0.51856,0.4121 1.42005,1.34863 2.00332,2.08118 0.58326,0.73255 1.36479,2.08063 1.73674,2.99574 0.50807,1.25005 0.68022,2.15734 0.69221,3.64821 0.0135,1.67715 -0.15489,2.46839 -1.08753,5.11059 -0.79943,2.26484 -1.10348,3.54111 -1.10348,4.63196 0,0.82815 0.11702,1.91378 0.26006,2.41251 0.14303,0.49872 0.21218,0.95464 0.15366,1.01316 -0.0585,0.0585 -0.44344,-0.23125 -0.85537,-0.64393 -0.41194,-0.41268 -0.91839,-1.04799 -1.12544,-1.41179 -0.20706,-0.3638 -0.52652,-1.13771 -0.70991,-1.71979 -0.33344,-1.05833 -0.33344,-1.05833 -0.35114,0.68618 -0.0111,1.09887 0.17861,2.31508 0.5127,3.28615 0.29172,0.8479 0.81612,2.0274 1.16534,2.62111 0.34922,0.59371 0.85468,1.32746 1.12325,1.63054 0.26857,0.30309 0.81878,0.76526 1.22269,1.02706 0.70942,0.45982 0.75306,0.45909 1.28386,-0.0213 0.30221,-0.2735 0.71588,-0.81906 0.91926,-1.21236 0.20338,-0.3933 0.36979,-1.09346 0.36979,-1.55592 0,-0.46245 -0.34219,-1.45063 -0.76041,-2.19595 -0.41823,-0.74532 -0.85356,-1.71231 -0.96742,-2.14887 -0.11385,-0.43656 -0.24677,-0.97235 -0.29537,-1.19063 -0.0486,-0.21828 -0.10774,-0.635 -0.13142,-0.92604 -0.0237,-0.29104 0.10488,-1.06495 0.28569,-1.71979 0.18081,-0.65484 0.58599,-1.46983 0.9004,-1.81108 0.31441,-0.34125 0.92194,-0.80261 1.35007,-1.02526 0.42813,-0.22264 1.39886,-0.40481 2.15718,-0.40481 1.15089,0 1.55028,0.13785 2.4167,0.83413 0.75849,0.60953 1.15721,1.21242 1.48085,2.23914 0.24359,0.77276 0.44289,1.6584 0.44289,1.9681 0,0.30969 0.19823,0.97876 0.44051,1.48682 0.30204,0.6334 0.75945,1.05137 1.45521,1.32975 0.55808,0.22331 1.0147,0.5067 1.0147,0.62976 0,0.12306 -0.6413,0.44174 -1.42512,0.70816 -1.21516,0.41305 -1.54519,0.43468 -2.24018,0.1468 -0.44829,-0.18568 -0.93813,-0.48589 -1.08853,-0.66711 -0.15041,-0.18123 -0.33886,-1.09115 -0.41878,-2.02206 -0.0799,-0.9309 -0.27014,-2.08689 -0.42271,-2.56885 -0.16965,-0.53596 -0.52999,-0.97235 -0.92778,-1.12359 -0.46869,-0.17819 -0.87116,-0.13311 -1.44064,0.16138 -0.43463,0.22475 -0.90911,0.72128 -1.05439,1.1034 -0.14528,0.38211 -0.18705,1.06102 -0.0928,1.50868 0.0942,0.44766 0.69445,1.63867 1.33384,2.64669 0.95644,1.50783 1.16255,2.05726 1.16255,3.09906 0,0.69646 -0.24637,1.89579 -0.54748,2.66516 -0.30112,0.76937 -0.98573,2.03835 -1.52136,2.81995 -0.97189,1.41821 -0.97387,1.42682 -0.97387,4.23334 0,2.11143 0.113,3.04795 0.45347,3.75813 0.24941,0.52025 0.84472,1.2761 1.32291,1.67966 0.4782,0.40357 1.25349,0.92131 1.72287,1.15054 0.64238,0.31371 0.82461,0.55262 0.73694,0.96617 -0.0641,0.30217 -0.29546,1.85908 -0.51422,3.45981 -0.21877,1.60073 -0.46779,3.68814 -0.55339,4.63868 -0.0856,0.95054 -0.24132,1.8669 -0.34605,2.03635 -0.10473,0.16946 -0.96124,0.35107 -1.90335,0.40358 -0.94211,0.0525 0.3934,0.11842 2.96781,0.14646 2.5744,0.028 4.73145,0.14027 4.79344,0.24941 0.062,0.10914 -0.0798,0.5088 -0.31512,0.88813 -0.2353,0.37933 -0.88577,1.39136 -1.44549,2.24896 -0.55972,0.8576 -1.18492,1.79739 -1.38932,2.08843 -0.20441,0.29104 -1.02708,1.51144 -1.82816,2.71198 -1.4565,2.18281 -1.4565,2.18281 -16.53619,2.18281 -8.29384,0 -15.07971,-0.0997 -15.07971,-0.22151 0,-0.12183 0.49783,-0.9255 1.10627,-1.78594 0.60845,-0.86043 1.38236,-1.90098 1.71979,-2.31233 0.33744,-0.41134 0.61353,-0.84716 0.61353,-0.96848 0,-0.12132 -1.0418,-0.18129 -2.31511,-0.13327 -1.2733,0.048 -5.67963,0.16765 -9.79184,0.26585 -7.47675,0.17854 -7.47675,0.17854 -10.05417,2.68139 -1.41758,1.37657 -2.89762,2.67434 -3.28897,2.88394 -0.39135,0.20959 -0.8676,0.59012 -1.05833,0.84561 -0.19073,0.25549 -1.26674,1.08961 -2.39112,1.8536 -1.12438,0.76398 -2.12874,1.38906 -2.2319,1.38906 -0.10317,0 -0.43338,0.22469 -0.7338,0.4993 -0.30042,0.27462 -1.56918,1.04355 -2.81946,1.70874 -1.30293,0.69319 -2.375802,1.11177 -2.513532,0.98062 z m 1.946512,-2.72065 c 0.83454,-0.4702 2.29125,-1.35502 3.23713,-1.96628 0.94589,-0.61125 2.11891,-1.3874 2.60673,-1.72478 0.48781,-0.33737 1.67843,-1.25279 2.64583,-2.03425 0.9674,-0.78147 3.07031,-2.746 4.67313,-4.36563 1.60283,-1.61963 3.36417,-3.62759 3.91409,-4.46213 0.54992,-0.83454 1.3589,-2.24099 1.79772,-3.12544 0.43882,-0.88445 1.13925,-2.82101 1.55651,-4.30348 0.41727,-1.48247 0.94925,-4.13492 1.1822,-5.89435 0.36588,-2.76347 0.40747,-5.87314 0.30554,-22.84295 -0.0649,-10.8042 -0.19297,-19.71898 -0.28461,-19.81061 -0.0916,-0.0916 -10.57132,-0.17075 -23.288182,-0.1758 -23.12157,-0.009 -23.12157,-0.009 -23.21196,2.50436 -0.0497,1.38245 -0.0827,10.84791 -0.0734,21.03437 0.009,10.18646 0.0871,18.75896 0.17268,19.05 0.0856,0.29104 0.23597,1.24354 0.33413,2.11667 0.0982,0.87312 0.48217,2.59953 0.85335,3.83646 0.37118,1.23692 0.98323,2.96333 1.36011,3.83645 0.37688,0.87313 1.26977,2.48047 1.9842,3.57188 0.71443,1.09141 2.26952,2.9785 3.45575,4.19353 1.18623,1.21504 3.24098,3.12004 4.56611,4.23334 1.32514,1.11329 2.67825,2.20276 3.00693,2.42105 0.32867,0.21828 1.11257,0.78382 1.74198,1.25677 0.62941,0.47294 1.19278,0.85989 1.25192,0.85989 0.0591,0 1.10808,0.59523 2.33098,1.32273 1.22289,0.72749 2.25502,1.32281 2.2936,1.32291 0.0386,1.1e-4 0.752952,-0.38451 1.587492,-0.85471 z m -2.949392,-2.12272 c -0.56494,-0.32684 -1.21978,-0.71574 -1.45521,-0.86424 -0.23542,-0.14849 -0.94938,-0.60614 -1.58657,-1.017 -0.63719,-0.41085 -2.55527,-1.85954 -4.2624,-3.21931 -1.70713,-1.35977 -4.24595,-3.69074 -5.64181,-5.17993 -1.39586,-1.48919 -2.92877,-3.43134 -3.40645,-4.3159 -0.47769,-0.88456 -1.25075,-2.58518 -1.71792,-3.77917 -0.46717,-1.19398 -0.91902,-2.62273 -1.0041,-3.175 -0.0851,-0.55226 -0.38281,-2.01615 -0.66162,-3.25307 -0.47858,-2.12323 -0.50169,-3.28443 -0.41329,-20.76979 0.0515,-10.18646 0.10455,-19.08638 0.1179,-19.77761 0.0243,-1.25677 0.0243,-1.25677 21.42548,-1.25677 21.401202,0 21.401202,0 21.497382,0.7276 0.0529,0.40019 0.0803,9.41917 0.0609,20.04219 -0.0194,10.62302 -0.10057,19.61224 -0.18045,19.97604 -0.0799,0.3638 -0.38938,1.80263 -0.68777,3.19739 -0.2984,1.39477 -0.84156,3.33037 -1.20704,4.30135 -0.36547,0.97097 -0.98387,2.38964 -1.37422,3.1526 -0.39035,0.76296 -1.346,2.16111 -2.12367,3.107 -0.77767,0.94588 -1.91752,2.22703 -2.533,2.847 -0.61547,0.61996 -1.70133,1.63199 -2.41301,2.24896 -0.71168,0.61696 -1.58029,1.38963 -1.93025,1.71706 -0.34996,0.32742 -0.70365,0.59531 -0.78598,0.59531 -0.0823,0 -0.702,0.45138 -1.37704,1.00307 -0.67504,0.5517 -2.2666,1.68526 -3.5368,2.51903 -1.2702,0.83377 -2.63942,1.57254 -3.0427,1.64169 -0.467332,0.0801 -1.105762,-0.0898 -1.760412,-0.4685 z m 5.128192,-3.61098 c 0.94589,-0.64745 2.04964,-1.42418 2.45279,-1.72606 0.40314,-0.30188 1.29431,-1.02513 1.98037,-1.60721 0.68606,-0.58208 2.06359,-1.83224 3.06117,-2.77812 0.99759,-0.94589 2.44492,-2.4937 3.21628,-3.43959 0.77137,-0.94588 1.75396,-2.37463 2.18354,-3.175 0.42958,-0.80036 1.0935,-2.40771 1.47538,-3.57187 0.38188,-1.16417 0.77097,-2.71198 0.86465,-3.43959 0.0937,-0.7276 0.21968,-1.56104 0.28001,-1.85208 0.0603,-0.29104 0.22843,-1.44392 0.37356,-2.56196 0.16124,-1.24211 0.21682,-7.67416 0.14289,-16.53645 -0.0665,-7.97702 -0.15855,-15.87289 -0.20446,-17.54638 -0.0835,-3.04271 -0.0835,-3.04271 -9.67462,-3.11215 -9.59113,-0.0695 -9.59113,-0.0695 -9.59113,1.91823 0,1.98767 0,1.98767 0.72759,1.99108 0.40018,0.002 1.50151,0.24532 2.4474,0.54098 0.94588,0.29565 2.18095,0.85626 2.74459,1.24579 0.56364,0.38953 1.42684,1.23478 1.91823,1.87833 0.49138,0.64355 0.89343,1.3363 0.89343,1.53945 0,0.20316 0.22059,0.81111 0.4902,1.35102 0.39146,0.78392 0.50196,1.68776 0.54863,4.48737 0.0584,3.50573 0.0584,3.50573 -1.48239,3.52473 -0.84745,0.0104 -2.32706,0.0764 -3.28803,0.14653 -1.74721,0.12754 -1.74721,0.12754 -1.88985,-2.59868 -0.0837,-1.59879 -0.32317,-3.17321 -0.57917,-3.80707 -0.30679,-0.75964 -0.71104,-1.21176 -1.36027,-1.52135 -0.50806,-0.24228 -0.99398,-0.44051 -1.07983,-0.44051 -0.0858,0 -0.0706,6.99492 0.0339,15.54427 0.10451,8.54935 0.24507,15.60063 0.31237,15.66952 0.0673,0.0689 0.44302,-0.0519 0.83495,-0.2683 0.39193,-0.21645 0.94625,-0.86813 1.23181,-1.44817 0.41014,-0.83306 0.54188,-1.76668 0.6271,-4.44416 0.0838,-2.63353 0.18433,-3.36022 0.45058,-3.25804 0.18848,0.0723 1.3676,0.15615 2.62026,0.18628 1.25266,0.0301 2.57242,0.11114 2.93281,0.18003 0.65525,0.12526 0.65525,0.12526 0.65525,3.42966 0,2.08748 -0.14951,3.9031 -0.40598,4.93009 -0.22329,0.89413 -0.54772,1.92335 -0.72096,2.28715 -0.17324,0.3638 -0.60002,1.01865 -0.9484,1.45521 -0.34839,0.43656 -1.352,1.29782 -2.23026,1.91389 -0.87825,0.61608 -1.99518,1.18163 -2.48207,1.25677 -0.48688,0.0752 -1.2901,0.19933 -1.78493,0.27597 -0.89968,0.13934 -0.89968,0.13934 -0.89068,7.78814 0.009,7.6488 0.009,7.6488 0.70125,7.20912 0.38073,-0.24182 1.46614,-0.96941 2.41203,-1.61687 z m -3.70415,-16.40184 c 0,-2.14276 -0.0759,-2.64665 -0.418522,-2.77812 -0.23018,-0.0883 -0.63084,-0.1606 -0.89036,-0.1606 -0.25951,0 -0.78794,-0.24864 -1.17427,-0.55253 -0.38633,-0.30389 -0.88981,-0.91489 -1.11884,-1.35778 -0.3625,-0.70099 -0.41694,-2.53167 -0.42049,-14.13955 -0.003,-9.31879 0.0859,-13.5511 0.29486,-14.0542 0.16442,-0.39594 0.68771,-0.98567 1.16287,-1.31049 0.47516,-0.32483 1.23583,-0.66498 1.69038,-0.75589 0.82645,-0.16529 0.82645,-0.16529 0.83222,-2.8194 0.006,-2.65412 0.006,-2.65412 -1.64715,-2.49976 -0.90911,0.0849 -2.29991,0.40211 -3.09067,0.70493 -0.79076,0.30283 -1.74522,0.81537 -2.12102,1.13899 -0.3758,0.32361 -0.98585,1.00511 -1.35565,1.51443 -0.36981,0.50932 -0.92554,1.61512 -1.23496,2.45732 -0.54764,1.49063 -0.56257,1.90736 -0.56257,15.69758 0,14.16631 0,14.16631 0.69315,15.93122 0.41928,1.06757 1.12494,2.21646 1.78594,2.90772 0.60103,0.62854 1.6881,1.41457 2.4157,1.74675 0.7276,0.33217 1.50151,0.67172 1.71979,0.75454 0.21828,0.0828 1.08149,0.15999 1.91823,0.17148 1.521362,0.0209 1.521362,0.0209 1.521362,-2.59664 z m -41.703672,6.52013 c -0.10741,-0.1819 -0.47163,-0.69915 -0.80936,-1.14945 -0.33773,-0.4503 -0.61406,-0.90473 -0.61406,-1.00984 0,-0.10511 -0.3044,-0.5902 -0.67644,-1.07798 -0.63612,-0.83399 -0.64795,-0.90343 -0.19844,-1.16492 0.39752,-0.23125 0.40719,-0.27942 0.0574,-0.28611 -0.2313,-0.004 -0.5438,-0.27594 -0.69444,-0.60336 -0.15064,-0.32743 -0.7474,-1.22346 -1.32615,-1.99119 -0.57875,-0.76773 -1.53658,-1.7681 -2.12851,-2.22304 -0.92948,-0.71438 -1.02502,-0.87837 -0.70068,-1.20271 0.20655,-0.20655 0.37554,-0.49202 0.37554,-0.63437 0,-0.14236 -0.17982,-0.60657 -0.39961,-1.03159 -0.21979,-0.42503 -0.63965,-0.90123 -0.93303,-1.05824 -0.42452,-0.2272 -0.69401,-0.17111 -1.32017,0.27475 -0.43273,0.30813 -0.78677,0.70423 -0.78677,0.88022 0,0.17599 -0.19964,0.60501 -0.44365,0.95338 -0.42069,0.60062 -0.45396,0.60709 -0.64286,0.12502 -0.10957,-0.27961 -0.20758,-1.23479 -0.21781,-2.12262 -0.0142,-1.23315 0.13916,-1.92023 0.64965,-2.91041 0.36754,-0.7129 1.26811,-1.84823 2.00127,-2.52295 0.90403,-0.83198 1.86576,-1.40672 2.98842,-1.78594 0.91048,-0.30754 1.99015,-0.55917 2.39928,-0.55917 0.40912,0 1.13255,0.24022 1.60761,0.53383 0.47507,0.2936 1.08203,0.85915 1.34882,1.25677 0.37535,0.55941 0.48043,1.20175 0.46452,2.83961 -0.0113,1.16417 -0.0684,3.10785 -0.12696,4.31929 -0.10642,2.20263 -0.10642,2.20263 0.75765,2.97656 0.47705,0.42729 1.16627,0.77394 1.53875,0.77394 0.37108,0 0.92357,-0.1332 1.22776,-0.296 0.46534,-0.24904 0.6286,-0.19657 1.02907,0.33073 0.26179,0.3447 0.67023,1.16251 0.90766,1.81736 0.23742,0.65484 0.44688,1.39898 0.46545,1.65364 0.0216,0.29608 0.25181,0.46302 0.63852,0.46302 0.45661,0 0.60477,-0.15075 0.60477,-0.61534 0,-0.33843 0.29765,-0.89497 0.66145,-1.23674 0.66146,-0.62141 0.66146,-0.62141 0.61217,-12.15081 -0.0271,-6.34117 -0.11641,-10.51737 -0.19844,-9.28044 -0.14299,2.15623 -0.17642,2.25207 -0.8106,2.32442 -0.3638,0.0415 -1.13771,0.24624 -1.71979,0.45496 -0.58209,0.20873 -1.77271,0.55041 -2.64584,0.75929 -0.87312,0.20888 -3.1256,0.82625 -5.0055,1.37194 -3.41801,0.99215 -3.41801,0.99215 -4.00976,0.3042 -0.32546,-0.37837 -0.77892,-0.95517 -1.00768,-1.28177 -0.22876,-0.3266 -0.49678,-0.51297 -0.5956,-0.41415 -0.0988,0.0988 0.18716,0.76976 0.63549,1.49098 0.81516,1.31132 0.81516,1.31132 -0.10612,1.85489 -0.50671,0.29897 -1.02787,0.54357 -1.15814,0.54357 -0.13028,0 -0.8495,0.61264 -1.59829,1.36143 -0.74878,0.74878 -1.59261,1.90076 -1.87518,2.55996 -0.28256,0.65919 -0.45618,1.34855 -0.38583,1.5319 0.0704,0.18335 0.0104,0.37253 -0.13319,0.4204 -0.14362,0.0479 -0.29284,0.38299 -0.33161,0.7447 -0.0388,0.36171 -0.50821,1.44002 -1.04323,2.39626 -0.53501,0.95622 -1.53996,2.27099 -2.23322,2.92169 -0.69326,0.6507 -1.694,1.38582 -2.22387,1.63359 -0.52987,0.24777 -1.03589,0.63939 -1.12448,0.87026 -0.0886,0.23087 -0.16108,0.64271 -0.16108,0.9152 0,0.42638 0.24396,0.50634 1.75024,0.57367 1.7376,0.0777 1.75259,0.0849 2.07583,1.00428 0.17908,0.50932 0.44839,1.28323 0.59847,1.71979 0.15008,0.43656 0.3577,0.99668 0.46138,1.2447 0.16586,0.39675 -0.0449,0.46198 -1.75339,0.54274 -1.06805,0.0505 2.20254,0.11545 7.26798,0.14436 7.30696,0.0417 9.16954,-0.0158 9.01458,-0.27816 z m 99.845842,0.13373 c -1.2733,-0.0485 -2.3151,-0.18673 -2.3151,-0.30718 0,-0.12045 0.2291,-0.80042 0.50912,-1.51106 0.28001,-0.71062 0.57993,-1.61947 0.66649,-2.01965 0.15167,-0.70119 0.21862,-0.72761 1.84383,-0.72761 1.20348,0 1.72726,-0.10635 1.82895,-0.37135 0.0784,-0.20425 0.0807,-0.60757 0.005,-0.89626 -0.0755,-0.2887 -0.62822,-0.7463 -1.22829,-1.0169 -0.60007,-0.27059 -1.58563,-0.9686 -2.19014,-1.55113 -0.60452,-0.58253 -1.54948,-1.77352 -2.09993,-2.64665 -0.55045,-0.87312 -0.97975,-1.61833 -0.95401,-1.65602 0.0257,-0.0377 -0.25559,-1.05994 -0.6252,-2.27168 -0.3696,-1.21174 -0.99818,-2.63966 -1.39684,-3.17317 -0.39866,-0.5335 -1.31134,-1.38648 -2.02818,-1.8955 -0.71684,-0.50903 -1.4464,-0.9255 -1.62125,-0.9255 -0.17485,0 -0.46902,-0.18209 -0.65372,-0.40464 -0.27778,-0.3347 -0.23858,-0.50812 0.22686,-1.00356 0.30947,-0.32942 0.6979,-0.98685 0.86318,-1.46096 0.16527,-0.47411 0.24943,-0.91309 0.18702,-0.9755 -0.0624,-0.0624 -0.4503,0.41939 -0.86197,1.07067 -0.41167,0.65128 -0.91393,1.32145 -1.11612,1.48925 -0.28082,0.23306 -0.75615,0.195 -2.01289,-0.16117 -0.9049,-0.25645 -2.59777,-0.74714 -3.76193,-1.09043 -1.16417,-0.34329 -3.18823,-0.9148 -4.49792,-1.27004 -1.30969,-0.35524 -2.68956,-0.71316 -3.06639,-0.79539 -0.68513,-0.1495 -0.68513,-0.1495 -0.68188,9.2641 0.003,9.41359 0.003,9.41359 0.61899,9.69414 0.46567,0.21217 0.61574,0.4959 0.61574,1.16412 0,0.86876 0.0189,0.88297 1.12448,0.84754 0.61846,-0.0198 0.85659,-0.0876 0.52916,-0.15069 -0.32742,-0.0631 -0.58741,-0.25521 -0.57775,-0.42699 0.01,-0.17178 0.39661,-1.08624 0.8599,-2.03212 0.668,-1.36387 0.95185,-1.70223 1.3715,-1.63495 0.29104,0.0467 0.85681,0.1495 1.25727,0.22854 0.4338,0.0856 0.97928,-0.0209 1.34951,-0.26346 0.34178,-0.22394 0.82484,-0.83585 1.07346,-1.35979 0.33808,-0.71245 0.41179,-1.32549 0.29237,-2.43146 -0.0878,-0.81336 -0.30734,-1.91164 -0.48779,-2.44062 -0.22466,-0.65859 -0.25739,-1.37789 -0.10382,-2.28165 0.12336,-0.72591 0.52058,-1.7083 0.88272,-2.18309 0.36213,-0.47478 1.02952,-1.05514 1.48309,-1.28969 0.56528,-0.29232 1.17647,-0.37823 1.94318,-0.27314 0.61518,0.0843 1.7648,0.43913 2.5547,0.78846 0.7899,0.34933 1.94126,1.13022 2.55858,1.73532 0.61732,0.6051 1.40391,1.73671 1.74797,2.51471 0.34407,0.77799 0.6943,1.81677 0.77829,2.3084 0.10092,0.59072 -0.014,1.25282 -0.33871,1.95221 -0.49142,1.05833 -0.49142,1.05833 -1.07124,-0.15953 -0.3189,-0.66983 -0.87303,-1.37479 -1.23139,-1.56658 -0.58075,-0.31081 -0.72185,-0.28267 -1.29834,0.25891 -0.35572,0.33419 -0.72657,0.97091 -0.82409,1.41494 -0.13006,0.59215 -0.0619,0.8917 0.25558,1.12388 0.38649,0.28261 0.3544,0.36543 -0.29943,0.77262 -0.40278,0.25084 -1.22164,0.98001 -1.81969,1.62037 -0.59806,0.64036 -1.37176,1.70037 -1.71934,2.35557 -0.34758,0.6552 -0.80376,1.19128 -1.01372,1.19128 -0.30912,0 -0.30074,0.0629 0.044,0.33073 0.38099,0.29591 0.31876,0.48391 -0.5912,1.78594 -0.55936,0.80036 -1.19534,1.78263 -1.4133,2.18281 -0.39628,0.7276 -0.39628,0.7276 9.17459,0.67319 5.26398,-0.0299 8.52907,-0.0941 7.25576,-0.14259 z m -86.651032,-7.71629 c 0.10914,-0.0133 0.19661,-9.93616 0.19439,-22.05077 -0.002,-12.11461 -0.0915,-22.14562 -0.19844,-22.29114 -0.10691,-0.14553 -0.7004,-0.27475 -1.31887,-0.28716 -1.12448,-0.0226 -1.12448,-0.0226 -1.12448,22.24705 0,12.24829 0.0532,22.32284 0.11828,22.38789 0.0651,0.0651 0.57107,0.0958 1.12448,0.0683 0.55341,-0.0275 1.0955,-0.0609 1.20464,-0.0742 z m 58.803642,0 c 0.17434,-0.016 0.2542,-7.53676 0.23416,-22.05077 -0.0167,-12.11461 -0.0465,-22.14602 -0.0661,-22.29201 -0.0197,-0.146 -0.60127,-0.26827 -1.29249,-0.27171 -1.25677,-0.006 -1.25677,-0.006 -1.218,22.22587 0.0213,12.22767 0.0511,22.29511 0.0661,22.37209 0.0151,0.077 0.47385,0.11763 1.01956,0.0904 0.5457,-0.0273 1.11125,-0.0605 1.25677,-0.0738 z M 80.171228,97.613653 c 0.98765,-0.9317 2.51993,-2.11844 3.40506,-2.63721 0.88514,-0.51876 2.37981,-1.25144 3.32149,-1.62817 0.94169,-0.37674 2.93623,-1.0042 4.43232,-1.39437 2.50906,-0.65435 3.13082,-0.70966 8.01183,-0.71272 4.638222,-0.003 5.618372,0.0736 7.937492,0.6194 1.4552,0.3425 3.59833,0.95661 4.7625,1.36469 1.16416,0.40808 2.83104,1.1175 3.70416,1.57648 0.87313,0.45899 1.83144,0.97597 2.12959,1.14886 0.29814,0.17288 1.07205,0.72982 1.71979,1.23765 0.64774,0.50782 1.47415,1.19243 1.83646,1.521355 0.43204,0.39222 0.99225,0.59804 1.62775,0.59804 0.969,0 0.969,0 0.62026,-1.124485 -0.19181,-0.61847 -0.54048,-1.65435 -0.77482,-2.30197 -0.23435,-0.64762 -0.58345,-1.36199 -0.77578,-1.5875 -0.19233,-0.22551 -0.4285,-0.6312 -0.52483,-0.90153 -0.0963,-0.27035 -0.73951,-1.17084 -1.42928,-2.0011 -0.68978,-0.83026 -1.86392,-2.00895 -2.60922,-2.61932 -0.74529,-0.61037 -1.7963,-1.40918 -2.33556,-1.77513 -0.53927,-0.36596 -1.56421,-0.96117 -2.27765,-1.3227 -0.71343,-0.36152 -1.92057,-0.90305 -2.68253,-1.20338 -0.76196,-0.30034 -1.86567,-0.644407 -2.4527,-0.764603 -0.58702,-0.120196 -1.97469,-0.400776 -3.08371,-0.623511 -1.10902,-0.222735 -3.21489,-0.411987 -4.67969,-0.420559 -1.464822,-0.0086 -3.236352,0.098 -3.936732,0.236831 -0.70038,0.138829 -1.57108,0.321188 -1.93488,0.405242 -0.3638,0.08405 -1.19724,0.251178 -1.85208,0.371386 -0.65484,0.120209 -2.05689,0.579274 -3.11564,1.020154 -1.05877,0.44088 -2.78517,1.3076 -3.83646,1.92605 -1.13618,0.66838 -2.82813,2.0472 -4.17158,3.39955 -1.24308,1.25131 -2.62946,2.92995 -3.08084,3.73032 -0.45139,0.80036 -1.13097,2.32551 -1.51018,3.3892 -0.37921,1.0637 -0.68947,1.986445 -0.68947,2.050535 0,0.0641 0.55107,0.11652 1.2246,0.11652 1.14191,0 1.34584,-0.11438 3.02033,-1.694005 z M 56.995768,130.3962 c -0.0428,-0.14552 -0.12908,-0.80037 -0.19183,-1.45521 -0.0627,-0.65484 -0.42932,-1.87876 -0.81461,-2.71982 -0.38529,-0.84106 -0.70053,-1.66041 -0.70053,-1.82077 0,-0.18497 0.36817,-0.2422 1.00689,-0.15653 0.55982,0.0751 1.17657,0.002 1.38906,-0.1636 0.2102,-0.16426 1.03702,-1.07214 1.83738,-2.0175 0.80037,-0.94537 1.69467,-1.98505 1.98733,-2.3104 0.29267,-0.32535 0.78984,-1.09968 1.10482,-1.72074 0.31498,-0.62105 0.71505,-1.51613 0.88904,-1.98908 0.29777,-0.80941 0.39214,-0.85989 1.60716,-0.85989 1.29082,0 1.29082,0 1.29082,3.41444 0,3.41444 0,3.41444 -1.15225,4.08971 -0.86481,0.50681 -1.34335,1.05763 -1.91823,2.20795 -0.42129,0.84298 -0.82551,1.59222 -0.89827,1.66498 -0.0728,0.0728 -0.58182,1.02526 -1.13125,2.11667 -0.99897,1.98437 -0.99897,1.98437 -2.61338,1.98437 -0.88792,0 -1.64939,-0.11906 -1.69215,-0.26458 z"
       id="path179" /></g></svg>
